<svg width="19" height="23" viewBox="0 0 19 23" fill="none" xmlns="http://www.w3.org/2000/svg">
<path d="M18.0927 19.2002L14.5853 15.0176C14.427 14.8288 14.2124 14.7239 13.9873 14.7239H13.4138C14.3848 13.243 14.9617 11.3803 14.9617 9.35405C14.9617 4.53378 11.6865 0.628052 7.64444 0.628052C3.60234 0.628052 0.327148 4.53378 0.327148 9.35405C0.327148 14.1743 3.60234 18.0801 7.64444 18.0801C9.34359 18.0801 10.9056 17.392 12.1474 16.2342V16.918C12.1474 17.1865 12.2353 17.4424 12.3936 17.6312L15.901 21.8138C16.2317 22.2081 16.7664 22.2081 17.0936 21.8138L18.0892 20.6265C18.4198 20.2322 18.4198 19.5945 18.0927 19.2002ZM7.64444 14.7239C5.15726 14.7239 3.14149 12.3242 3.14149 9.35405C3.14149 6.38805 5.15374 3.98421 7.64444 3.98421C10.1316 3.98421 12.1474 6.38386 12.1474 9.35405C12.1474 12.3201 10.1351 14.7239 7.64444 14.7239Z" fill="#676767"/>
</svg>
